<?xml version="1.0" encoding="utf-8"?>
<!-- Generator: Adobe Illustrator 24.1.0, SVG Export Plug-In . SVG Version: 6.00 Build 0)  -->
<svg version="1.1" id="Capa_1" xmlns="http://www.w3.org/2000/svg" xmlns:xlink="http://www.w3.org/1999/xlink" x="0px" y="0px"
	 viewBox="0 0 26 16.6" style="enable-background:new 0 0 26 16.6;" xml:space="preserve">
<g>
	<g>
		<path d="M25.8,7.8C25.6,7.5,20.1,0,13,0S0.4,7.5,0.2,7.8c-0.2,0.3-0.2,0.7,0,1c0.2,0.3,5.8,7.8,12.8,7.8s12.6-7.5,12.8-7.8
			C26.1,8.5,26.1,8.1,25.8,7.8z M13,14.9c-5.2,0-9.7-5-11.1-6.6C3.3,6.7,7.8,1.7,13,1.7c5.2,0,9.7,5,11.1,6.6
			C22.7,9.9,18.2,14.9,13,14.9z"  fill="#737373" />
	</g>
</g>
<g>
	<g>
		<path d="M13,3.1c-2.8,0-5.1,2.3-5.1,5.1s2.3,5.1,5.1,5.1s5.1-2.3,5.1-5.1S15.8,3.1,13,3.1z M13,11.7c-1.9,0-3.4-1.5-3.4-3.4
			s1.5-3.4,3.4-3.4s3.4,1.5,3.4,3.4S14.9,11.7,13,11.7z" fill="#737373" />
	</g>
</g>
</svg>
