<svg xmlns="http://www.w3.org/2000/svg" width="9.906" height="17.78" viewBox="0 0 9.906 17.78">
  <defs>
    <style>
      .cls-1 {
        fill: #fff;
        fill-rule: evenodd;
      }
    </style>
  </defs>
  <path id="Forma_1" data-name="Forma 1" class="cls-1" d="M278.247,2804.25l-2.371-.01a4.108,4.108,0,0,0-4.386,4.38v2.02h-2.384a0.366,0.366,0,0,0-.373.36v2.93a0.366,0.366,0,0,0,.373.36h2.384v7.38a0.366,0.366,0,0,0,.373.36h3.111a0.365,0.365,0,0,0,.372-0.36v-7.38h2.788a0.366,0.366,0,0,0,.373-0.36V2811a0.34,0.34,0,0,0-.109-0.25,0.374,0.374,0,0,0-.264-0.11h-2.788v-1.71c0-.82.2-1.24,1.3-1.24h1.6a0.366,0.366,0,0,0,.372-0.36v-2.72A0.365,0.365,0,0,0,278.247,2804.25Z" transform="translate(-268.719 -2804.25)"/>
</svg>
