<svg xmlns="http://www.w3.org/2000/svg" width="17.062" height="16.88" viewBox="0 0 17.062 16.88">
  <defs>
    <style>
      .cls-1 {
        fill: #fff;
        fill-rule: evenodd;
      }
    </style>
  </defs>
  <path class="cls-1" d="M365.907,2810.48h-3.426a0.272,0.272,0,0,0-.275.27v10.93a0.272,0.272,0,0,0,.275.27h3.426a0.272,0.272,0,0,0,.275-0.27v-10.93A0.272,0.272,0,0,0,365.907,2810.48Zm-1.712-5.43a2.24,2.24,0,1,0,2.259,2.24A2.256,2.256,0,0,0,364.2,2805.05Zm10.428,5.16a4.063,4.063,0,0,0-3.011,1.25v-0.71a0.272,0.272,0,0,0-.275-0.27h-3.282a0.272,0.272,0,0,0-.275.27v10.93a0.272,0.272,0,0,0,.275.27h3.419a0.273,0.273,0,0,0,.276-0.27v-5.41c0-1.82.5-2.53,1.777-2.53,1.394,0,1.5,1.14,1.5,2.63v5.31a0.273,0.273,0,0,0,.276.27h3.42a0.272,0.272,0,0,0,.275-0.27v-5.99C379,2812.98,378.482,2810.21,374.623,2810.21Z" transform="translate(-361.938 -2805.06)"/>
</svg>
