<svg xmlns="http://www.w3.org/2000/svg" width="18" height="14.25" viewBox="0 0 18 14.25">
  <defs>
    <style>
      .cls-1 {
        fill: #fff;
        fill-rule: evenodd;
      }
    </style>
  </defs>
  <path id="Forma_1" data-name="Forma 1" class="cls-1" d="M331.185,2807.72a7.638,7.638,0,0,1-2.125.57,3.6,3.6,0,0,0,1.622-1.98,7.5,7.5,0,0,1-2.338.86,3.744,3.744,0,0,0-2.694-1.13,3.629,3.629,0,0,0-3.6,4.41,10.549,10.549,0,0,1-7.6-3.76,3.531,3.531,0,0,0,1.133,4.8,3.749,3.749,0,0,1-1.666-.44v0.04a3.643,3.643,0,0,0,2.954,3.53,3.772,3.772,0,0,1-.967.11,3.227,3.227,0,0,1-.7-0.06,3.708,3.708,0,0,0,3.446,2.5,7.51,7.51,0,0,1-4.572,1.53,8.527,8.527,0,0,1-.883-0.04,10.636,10.636,0,0,0,5.657,1.61,10.284,10.284,0,0,0,10.5-10.22c0-.16-0.006-0.31-0.014-0.46A7.3,7.3,0,0,0,331.185,2807.72Z" transform="translate(-313.188 -2806.03)"/>
</svg>
